<svg xmlns="http://www.w3.org/2000/svg" width="48" height="48" viewBox="0 0 24 24" fill="none" stroke="currentColor" stroke-width="1.5" stroke-linecap="round" stroke-linejoin="round">
  <title>Packaging Icon</title>
  <path d="M21 10V8a2 2 0 0 0-1-1.73l-7-4a2 2 0 0 0-2 0l-7 4A2 2 0 0 0 3 8v2"/>
  <path d="M21 14v2a2 2 0 0 1-1 1.73l-7 4a2 2 0 0 1-2 0l-7-4A2 2 0 0 1 3 16v-2"/>
  <path d="M3.27 6.96 12 12.01l8.73-5.05"/>
  <line x1="12" y1="22.08" x2="12" y2="12"/>
  <line x1="21" y1="10" x2="21" y2="14"/>
  <line x1="3" y1="10" x2="3" y2="14"/>
</svg>