<svg
  width="200"
  height="80"
  viewBox="0 0 200 80"
  xmlns="http://www.w3.org/2000/svg"
  aria-labelledby="logoTitle"
  role="img"
>
  <title id="logoTitle">hueneu Logo</title>
  <style>
    .hueneu-logo-path {
      stroke: #1A1A1A; /* nearBlack */
      stroke-width: 2;
      stroke-linecap: round;
      stroke-linejoin: round;
      fill: #1A1A1A; /* nearBlack - filled letters */
    }
  </style>
  <g class="hueneu-logo-path">
    {/* h */}
    <path d="M20 20 V60 M20 40 H40 M40 20 V60" />
    {/* u */}
    <path d="M50 20 V55 A5 5 0 0 0 55 60 H65 A5 5 0 0 0 70 55 V20" />
    {/* e */}
    <path d="M90 20 V60 M90 20 H110 M90 40 H105 M90 60 H110" />
    {/* n */}
    <path d="M120 60 V20 L140 60 V20" />
    {/* e */}
    <path d="M150 20 V60 M150 20 H170 M150 40 H165 M150 60 H170" />
  </g>
</svg>