<svg width="200" height="60" viewBox="0 0 200 60" fill="none" xmlns="http://www.w3.org/2000/svg">
<title>hueneu Logo</title>
<!-- Placeholder for 'h' path -->
<path d="M20 15 L20 45 M20 30 L35 30 M35 15 L35 45" stroke="#1A1A1A" stroke-width="3" stroke-linecap="round" stroke-linejoin="round">
  <animate id="draw-h" attributeName="stroke-dasharray" from="0,1000" to="1000,0" dur="1s" begin="0s" fill="freeze" />
  <animate attributeName="fill-opacity" from="0" to="1" dur="0.5s" begin="draw-h.end+0.1s" fill="freeze" />
</path>
<!-- Placeholder for 'u' path -->
<path d="M50 15 L50 38 C50 45 55 45 60 45 C65 45 70 45 70 38 L70 15" stroke="#1A1A1A" stroke-width="3" stroke-linecap="round" stroke-linejoin="round" fill="none">
  <animate id="draw-u" attributeName="stroke-dasharray" from="0,1000" to="1000,0" dur="1s" begin="0.2s" fill="freeze" />
  <animate attributeName="fill-opacity" from="0" to="1" dur="0.5s" begin="draw-u.end+0.1s" fill="freeze" />
</path>
<!-- Placeholder for 'e' path -->
<path d="M85 30 L105 30 M85 15 L105 15 M85 45 L105 45 M85 15 L85 45" stroke="#1A1A1A" stroke-width="3" stroke-linecap="round" stroke-linejoin="round">
  <animate id="draw-e1" attributeName="stroke-dasharray" from="0,1000" to="1000,0" dur="1s" begin="0.4s" fill="freeze" />
  <animate attributeName="fill-opacity" from="0" to="1" dur="0.5s" begin="draw-e1.end+0.1s" fill="freeze" />
</path>
<!-- Placeholder for 'n' path -->
<path d="M120 45 L120 15 L135 45 L135 15" stroke="#1A1A1A" stroke-width="3" stroke-linecap="round" stroke-linejoin="round">
  <animate id="draw-n" attributeName="stroke-dasharray" from="0,1000" to="1000,0" dur="1s" begin="0.6s" fill="freeze" />
  <animate attributeName="fill-opacity" from="0" to="1" dur="0.5s" begin="draw-n.end+0.1s" fill="freeze" />
</path>
<!-- Placeholder for 'e' path (second e) -->
<path d="M150 30 L170 30 M150 15 L170 15 M150 45 L170 45 M150 15 L150 45" stroke="#1A1A1A" stroke-width="3" stroke-linecap="round" stroke-linejoin="round">
  <animate id="draw-e2" attributeName="stroke-dasharray" from="0,1000" to="1000,0" dur="1s" begin="0.8s" fill="freeze" />
  <animate attributeName="fill-opacity" from="0" to="1" dur="0.5s" begin="draw-e2.end+0.1s" fill="freeze" />
</path>
<!-- Placeholder for 'u' path (second u) -->
<path d="M185 15 L185 38 C185 45 190 45 195 45 C200 45 205 45 205 38 L205 15" stroke="#1A1A1A" stroke-width="3" stroke-linecap="round" stroke-linejoin="round" fill="none">
 <!-- Note: Corrected coordinates to fit within 200 width for a more compact logo if needed, original was 205 -->
 <!-- Adjusted path to fit a 200 width viewbox. Original second 'u' was M185 15 ... L205 15 -->
 <!-- For this placeholder, keeping it simple, assuming the AnimatedLogo component will manage its size/viewBox -->
 <!-- Corrected for AnimatedLogo.tsx to have distinct paths for animation -->
 <path d="M180 15 L180 38 C180 45 182.5 45 187.5 45 C192.5 45 195 45 195 38 L195 15" stroke="#1A1A1A" stroke-width="3" stroke-linecap="round" stroke-linejoin="round" fill="none">
  <animate id="draw-u2" attributeName="stroke-dasharray" from="0,1000" to="1000,0" dur="1s" begin="1.0s" fill="freeze" />
  <animate attributeName="fill-opacity" from="0" to="1" dur="0.5s" begin="draw-u2.end+0.1s" fill="freeze" />
</path>
</svg>
